<?xml version="1.0" encoding="UTF-8" standalone="no"?>
<!DOCTYPE svg PUBLIC "-//W3C//DTD SVG 1.1//EN" "http://www.w3.org/Graphics/SVG/1.1/DTD/svg11.dtd">
<svg width="100%" height="100%" viewBox="0 0 314 345" version="1.1" xmlns="http://www.w3.org/2000/svg" xmlns:xlink="http://www.w3.org/1999/xlink" xml:space="preserve" xmlns:serif="http://www.serif.com/" style="fill-rule:evenodd;clip-rule:evenodd;stroke-linejoin:round;stroke-miterlimit:2;">
    <g transform="matrix(1.73967,0,0,1.73967,-115.837,-127.252)">
        <path d="M214.2,208.53L201.48,208.53L201.48,226.59L195.33,226.59C189.67,226.59 179.15,216.04 176.99,214.7C174.94,213.43 172.53,212.77 169.79,212.77C166.2,212.77 163.33,214.01 161.2,216.5C159.05,218.99 157.69,222.79 157.08,227.92L156.11,227.92C155.5,222.8 154.13,218.99 151.99,216.5C149.87,214.01 146.99,212.77 143.4,212.77C140.67,212.77 138.25,213.43 136.2,214.7C134.03,216.04 123.52,226.59 117.86,226.59L111.71,226.59L111.71,208.53L99,208.53L99,223.04C99,228.85 100.29,233.02 102.9,235.48C103.8,236.33 104.8,237.07 105.88,237.6C107.9,238.67 110.22,239.21 112.86,239.21L118.64,239.21C120.76,239.21 122.64,238.97 124.28,238.5C127.54,237.58 129.93,236.29 132.04,234.45C133.1,233.52 138.03,229.61 139.36,229.01C140.02,228.71 141.48,228.07 143.13,228.07C144.92,228.07 146.94,228.83 148.39,231.61L148.39,231.64C149.58,233.93 150.16,237.4 150.16,242.03L150.16,245.96L163.04,245.96L163.04,242.03C163.04,237.39 163.63,233.93 164.82,231.64L164.82,231.61C166.18,228.99 168.28,228.2 170.24,228.2C171.62,228.2 172.93,228.59 173.84,229.01C175.12,229.59 180.16,233.57 181.16,234.45C183,236.06 185.38,237.5 188.92,238.5C190.55,238.96 192.43,239.21 194.56,239.21L200.34,239.21C202.97,239.21 205.29,238.67 207.32,237.6C208.39,237.06 209.39,236.33 210.3,235.48C212.91,233.02 214.2,228.84 214.2,223.04L214.2,208.53Z" style="fill:rgb(224,224,224);fill-rule:nonzero;"/>
    </g>
    <g transform="matrix(1.73967,0,0,1.73967,-115.837,-127.252)">
        <path d="M221.29,91.9L221.29,252.19L91.9,252.19L91.9,91.9L221.3,91.9M234.9,78.3L78.3,78.3L78.3,265.78L234.9,265.78L234.9,78.3Z" style="fill:rgb(224,224,224);fill-rule:nonzero;"/>
    </g>
    <g transform="matrix(1.73967,0,0,1.73967,-115.837,-127.252)">
        <path d="M214.71,114.74L182.12,170.33L214.71,138.39L214.71,153.63L189.74,178.1L214.71,164.12L214.71,176.59L195.04,187.6L214.71,182.68L214.71,193.9L187.73,200.66L184.78,198.96C184.78,198.96 184.76,198.9 184.76,198.86L192.02,191.3L188.61,183.83L178.48,184.33C178.37,184.21 178.25,184.1 178.14,183.97L180.09,173.99L173.2,169.57L165.1,175.35C164.87,175.27 164.62,175.24 164.39,175.16L160.69,165.89L152.49,165.89L148.79,175.16C148.56,175.24 148.31,175.28 148.08,175.35L140,169.57L133.09,173.99L135.04,183.97C134.93,184.1 134.81,184.22 134.71,184.33L124.56,183.83L121.15,191.3L128.41,198.86C128.41,198.86 128.41,198.92 128.39,198.96L125.56,200.59L98.47,193.81L98.47,182.59L118.54,187.61L98.47,176.39L98.47,163.92L123.84,178.11L98.47,153.26L98.47,138.02L131.46,170.36L98.47,114.08L98.47,98.47L101.94,98.47L140.85,164.84L122.83,98.47L134.09,98.47L151.34,162L151.34,98.47L162.22,98.47L162.22,162L179.49,98.47L190.75,98.47L172.73,164.86L211.64,98.47L214.7,98.47L214.7,114.75L214.71,114.74Z" style="fill:rgb(224,224,224);fill-rule:nonzero;"/>
    </g>
</svg>
