<?xml version="1.0" standalone="no"?>
<!DOCTYPE svg PUBLIC "-//W3C//DTD SVG 20010904//EN"
 "http://www.w3.org/TR/2001/REC-SVG-20010904/DTD/svg10.dtd">
<svg version="1.0" xmlns="http://www.w3.org/2000/svg"
 width="1024.000000pt" height="1024.000000pt" viewBox="0 0 1024.000000 1024.000000"
 preserveAspectRatio="xMidYMid meet">
<metadata>
Created by potrace 1.14, written by Peter Selinger 2001-2017
</metadata>
<g transform="translate(0.000000,1024.000000) scale(0.100000,-0.100000)"
fill="#000000" stroke="none">
<path d="M0 5120 l0 -5120 5120 0 5120 0 0 5120 0 5120 -5120 0 -5120 0 0
-5120z m5465 4510 c823 -70 1565 -334 2225 -792 988 -684 1669 -1743 1875
-2913 237 -1346 -114 -2669 -984 -3709 -750 -896 -1815 -1463 -2991 -1593
-226 -24 -729 -25 -948 0 -954 108 -1809 485 -2517 1109 -641 565 -1115 1315
-1350 2136 -176 612 -222 1305 -129 1937 104 712 412 1443 855 2030 202 268
523 600 774 801 725 579 1561 914 2480 993 144 12 569 13 710 1z"/>
<path d="M4885 9049 c-834 -49 -1635 -365 -2280 -900 -130 -107 -428 -407
-530 -532 -551 -676 -865 -1502 -892 -2342 -35 -1093 360 -2119 1114 -2895
314 -324 623 -554 1012 -753 212 -109 315 -155 493 -218 745 -263 1540 -297
2303 -99 1030 268 1900 934 2435 1865 362 628 548 1392 510 2084 -13 238 -24
342 -56 531 -92 547 -304 1071 -625 1545 -326 481 -784 907 -1283 1195 -541
311 -1116 482 -1751 520 -187 11 -257 11 -450 -1z m457 -566 l68 -6 2 -849 3
-850 290 797 289 796 34 -6 c111 -21 516 -179 509 -199 -18 -47 -508 -1395
-538 -1481 -34 -96 -36 -107 -16 -83 12 14 258 307 547 651 l525 625 30 -21
c69 -49 276 -220 344 -284 l72 -68 -516 -615 c-598 -712 -586 -697 -559 -682
10 6 341 198 734 426 l715 414 26 -29 c66 -74 280 -466 261 -478 -6 -3 -334
-193 -730 -421 -395 -228 -714 -416 -708 -418 6 -1 380 63 831 143 450 79 820
143 822 141 2 -2 17 -63 33 -137 24 -114 38 -196 64 -396 3 -18 0 -33 -7 -36
-7 -2 -380 -69 -829 -148 -450 -79 -818 -146 -818 -149 0 -3 368 -70 818 -149
449 -79 822 -146 829 -148 7 -3 10 -18 7 -36 -26 -200 -40 -282 -64 -396 -16
-74 -31 -135 -33 -137 -2 -2 -346 57 -765 132 l-761 134 -164 95 -164 95 -7
47 c-12 88 -13 85 124 226 l130 134 -78 169 -79 169 -190 0 -190 0 -45 54 -45
54 13 70 c8 39 23 119 35 179 12 60 20 110 18 112 -4 3 -283 185 -305 199 -6
4 -77 -40 -157 -97 l-145 -104 -81 25 -80 25 -64 162 -64 161 -192 0 -193 0
-65 -161 -64 -162 -81 -25 -80 -25 -145 104 -144 105 -159 -103 c-88 -57 -160
-108 -160 -114 0 -6 15 -86 34 -179 l34 -168 -46 -56 -46 -56 -190 0 -189 0
-79 -170 -79 -169 103 -106 c173 -176 161 -158 153 -234 l-7 -65 -166 -96
-165 -95 -736 -130 c-405 -72 -748 -133 -763 -136 -26 -5 -26 -3 -46 83 -46
196 -86 473 -71 483 4 3 377 71 829 150 451 80 820 147 820 150 0 3 -369 70
-820 150 -452 79 -825 147 -829 150 -15 10 25 287 71 483 20 86 20 88 46 83
104 -22 1619 -286 1628 -284 6 2 -313 190 -708 418 -396 228 -724 418 -730
421 -17 11 180 374 266 492 12 16 71 -16 717 -389 387 -223 720 -416 739 -427
l35 -22 -32 40 c-17 22 -264 317 -548 655 l-516 615 72 68 c68 64 276 235 344
284 l30 21 520 -619 c286 -341 532 -634 548 -652 27 -32 27 -32 -12 78 -31 87
-521 1437 -538 1481 -8 21 390 177 509 199 l34 6 289 -796 290 -797 3 851 2
850 48 4 c85 6 396 7 464 0z m-2222 -4974 l0 -401 178 4 177 3 76 36 c131 62
275 166 536 386 68 56 141 112 164 123 109 56 303 76 424 45 142 -37 248 -129
319 -277 41 -86 96 -271 96 -324 0 -35 11 -54 30 -54 21 0 26 12 35 90 29 225
155 444 301 522 114 61 274 75 420 37 104 -27 145 -52 294 -178 242 -206 371
-299 508 -364 l87 -42 178 -3 177 -3 0 400 0 401 281 0 280 0 -3 -427 c-4
-402 -5 -433 -26 -506 -47 -170 -136 -285 -278 -359 -115 -60 -169 -68 -436
-68 -264 0 -349 11 -477 61 -109 43 -149 69 -301 189 -270 214 -301 230 -432
230 -155 -1 -238 -82 -289 -282 -17 -66 -22 -125 -26 -290 l-5 -208 -288 0
-287 0 -6 208 c-7 278 -39 405 -127 505 -73 84 -216 101 -338 39 -64 -31 -236
-157 -352 -256 -78 -67 -215 -137 -325 -168 -70 -19 -112 -22 -344 -26 -224
-3 -276 -1 -335 13 -105 25 -200 79 -277 155 -73 73 -108 135 -141 255 -21 76
-22 104 -26 508 l-3 427 280 0 281 0 0 -401z"/>
</g>
</svg>
