<?xml version="1.0" encoding="UTF-8"?>
<svg id="Logo" xmlns="http://www.w3.org/2000/svg" viewBox="0 0 300 300">
  <defs>
    <style>
      .cls-1 {
        fill: #262427;
        stroke-width: 0px;
      }
    </style>
  </defs>
  <path class="cls-1" d="m208.53,208.94h-8.02c-7.38,0-21.1-13.76-23.92-15.5-2.67-1.65-5.82-2.51-9.38-2.51-4.68,0-8.43,1.62-11.2,4.87-2.8,3.24-4.58,8.21-5.38,14.89h-1.27c-.8-6.68-2.58-11.64-5.38-14.89-2.77-3.24-6.52-4.87-11.2-4.87-3.56,0-6.71.86-9.38,2.51-2.82,1.75-16.54,15.5-23.92,15.5h-8.02v-23.55h-16.57v18.93c0,7.57,1.69,13.01,5.09,16.22,1.18,1.11,2.48,2.07,3.88,2.77,2.64,1.4,5.66,2.1,9.1,2.1h7.54c2.77,0,5.22-.32,7.35-.92,4.25-1.2,7.37-2.88,10.12-5.28,1.39-1.21,7.81-6.31,9.54-7.09.86-.39,2.77-1.23,4.92-1.23,2.34,0,4.97.99,6.86,4.62v.04c1.55,2.99,2.31,7.51,2.31,13.55v5.12h16.8v-5.12c0-6.04.76-10.56,2.32-13.55v-.04c1.77-3.42,4.52-4.44,7.06-4.44,1.8,0,3.51.51,4.7,1.05,1.66.75,8.24,5.95,9.54,7.09,2.4,2.1,5.5,3.97,10.12,5.28,2.13.6,4.58.92,7.35.92h7.54c3.44,0,6.46-.7,9.1-2.1,1.4-.7,2.7-1.65,3.88-2.77,3.4-3.21,5.09-8.65,5.09-16.22v-18.93h-16.57v23.55Z"/>
  <path class="cls-1" d="m150,17.54c-73.16,0-132.46,59.31-132.46,132.46s59.31,132.46,132.46,132.46,132.46-59.31,132.46-132.46S223.16,17.54,150,17.54Zm0,247.82c-63.61,0-115.36-51.75-115.36-115.36s51.75-115.36,115.36-115.36,115.36,51.75,115.36,115.36-51.75,115.36-115.36,115.36Z"/>
  <path class="cls-1" d="m199.02,150l49.34,8.7c-.5,5.74-1.49,11.35-2.94,16.77l-44.66-7.87-9.68-5.56c-.12-1.31-.3-2.61-.53-3.88l7.75-8.09-4.65-10.17-10.89.54c-.88-1.17-1.81-2.29-2.8-3.37l2.07-10.6-9.4-6.04-8.51,6.09c-1.52-.56-3.08-1.04-4.68-1.42l-3.84-9.67h-11.19l-3.84,9.67c-1.6.38-3.16.86-4.68,1.42l-8.5-6.09-9.41,6.04,2.07,10.6c-.99,1.07-1.93,2.19-2.81,3.37l-10.89-.55-4.55,9.97-.82.14-49.34-8.7c.5-5.74,1.49-11.35,2.94-16.77l49.35,8.7-43.38-25.05c2.43-5.17,5.29-10.09,8.54-14.73l43.36,25.03-32.19-38.36c4.02-4.01,8.39-7.66,13.05-10.94l32.18,38.35-17.13-47.07c5.11-2.39,10.45-4.35,15.99-5.84l17.14,47.09v-50.1c2.81-.24,5.64-.39,8.51-.39s5.7.15,8.51.39v50.1l17.14-47.09c5.54,1.49,10.88,3.45,15.99,5.84l-17.13,47.07,32.18-38.35c4.66,3.28,9.03,6.92,13.05,10.93l-32.19,38.36,43.36-25.04c3.25,4.64,6.12,9.56,8.54,14.73l-43.38,25.05,49.35-8.7c1.45,5.42,2.44,11.03,2.94,16.77l-49.34,8.7Zm-144.45,25.47l44.65-7.87,9.69-5.56c.12-1.31.3-2.61.53-3.89l-7.67-8.01-.8-.14-49.34,8.7c.5,5.74,1.49,11.35,2.94,16.77Z"/>
</svg>