<?xml version="1.0" encoding="UTF-8" standalone="no"?>
<!DOCTYPE svg PUBLIC "-//W3C//DTD SVG 1.1//EN" "http://www.w3.org/Graphics/SVG/1.1/DTD/svg11.dtd">
<svg width="100%" height="100%" viewBox="0 0 300 300" version="1.1" xmlns="http://www.w3.org/2000/svg" xmlns:xlink="http://www.w3.org/1999/xlink" xml:space="preserve" xmlns:serif="http://www.serif.com/" style="fill-rule:evenodd;clip-rule:evenodd;stroke-linejoin:round;stroke-miterlimit:2;">
    <path d="M208.53,208.94L200.51,208.94C193.13,208.94 179.41,195.18 176.59,193.44C173.92,191.79 170.77,190.93 167.21,190.93C162.53,190.93 158.78,192.55 156.01,195.8C153.21,199.04 151.43,204.01 150.63,210.69L149.36,210.69C148.56,204.01 146.78,199.05 143.98,195.8C141.21,192.56 137.46,190.93 132.78,190.93C129.22,190.93 126.07,191.79 123.4,193.44C120.58,195.19 106.86,208.94 99.48,208.94L91.46,208.94L91.46,185.39L74.89,185.39L74.89,204.32C74.89,211.89 76.58,217.33 79.98,220.54C81.16,221.65 82.46,222.61 83.86,223.31C86.5,224.71 89.52,225.41 92.96,225.41L100.5,225.41C103.27,225.41 105.72,225.09 107.85,224.49C112.1,223.29 115.22,221.61 117.97,219.21C119.36,218 125.78,212.9 127.51,212.12C128.37,211.73 130.28,210.89 132.43,210.89C134.77,210.89 137.4,211.88 139.29,215.51L139.29,215.55C140.84,218.54 141.6,223.06 141.6,229.1L141.6,234.22L158.4,234.22L158.4,229.1C158.4,223.06 159.16,218.54 160.72,215.55L160.72,215.51C162.49,212.09 165.24,211.07 167.78,211.07C169.58,211.07 171.29,211.58 172.48,212.12C174.14,212.87 180.72,218.07 182.02,219.21C184.42,221.31 187.52,223.18 192.14,224.49C194.27,225.09 196.72,225.41 199.49,225.41L207.03,225.41C210.47,225.41 213.49,224.71 216.13,223.31C217.53,222.61 218.83,221.66 220.01,220.54C223.41,217.33 225.1,211.89 225.1,204.32L225.1,185.39L208.53,185.39L208.53,208.94Z" style="fill:rgb(224,224,224);fill-rule:nonzero;"/>
    <path d="M150,17.54C76.84,17.54 17.54,76.85 17.54,150C17.54,223.15 76.85,282.46 150,282.46C223.15,282.46 282.46,223.15 282.46,150C282.46,76.85 223.16,17.54 150,17.54ZM150,265.36C86.39,265.36 34.64,213.61 34.64,150C34.64,86.39 86.39,34.64 150,34.64C213.61,34.64 265.36,86.39 265.36,150C265.36,213.61 213.61,265.36 150,265.36Z" style="fill:rgb(224,224,224);fill-rule:nonzero;"/>
    <path d="M199.02,150L248.36,158.7C247.86,164.44 246.87,170.05 245.42,175.47L200.76,167.6L191.08,162.04C190.96,160.73 190.78,159.43 190.55,158.16L198.3,150.07L193.65,139.9L182.76,140.44C181.88,139.27 180.95,138.15 179.96,137.07L182.03,126.47L172.63,120.43L164.12,126.52C162.6,125.96 161.04,125.48 159.44,125.1L155.6,115.43L144.41,115.43L140.57,125.1C138.97,125.48 137.41,125.96 135.89,126.52L127.39,120.43L117.98,126.47L120.05,137.07C119.06,138.14 118.12,139.26 117.24,140.44L106.35,139.89L101.8,149.86L100.98,150L51.64,141.3C52.14,135.56 53.13,129.95 54.58,124.53L103.93,133.23L60.55,108.18C62.98,103.01 65.84,98.09 69.09,93.45L112.45,118.48L80.26,80.12C84.28,76.11 88.65,72.46 93.31,69.18L125.49,107.53L108.36,60.46C113.47,58.07 118.81,56.11 124.35,54.62L141.49,101.71L141.49,51.61C144.3,51.37 147.13,51.22 150,51.22C152.87,51.22 155.7,51.37 158.51,51.61L158.51,101.71L175.65,54.62C181.19,56.11 186.53,58.07 191.64,60.46L174.51,107.53L206.69,69.18C211.35,72.46 215.72,76.1 219.74,80.11L187.55,118.47L230.91,93.43C234.16,98.07 237.03,102.99 239.45,108.16L196.07,133.21L245.42,124.51C246.87,129.93 247.86,135.54 248.36,141.28L199.02,149.98L199.02,150ZM54.57,175.47L99.22,167.6L108.91,162.04C109.03,160.73 109.21,159.43 109.44,158.15L101.77,150.14L100.97,150L51.63,158.7C52.13,164.44 53.12,170.05 54.57,175.47Z" style="fill:rgb(224,224,224);fill-rule:nonzero;"/>
</svg>
